<mxfile host="app.diagrams.net" modified="2023-08-29T11:24:23.295Z" agent="Mozilla/5.0 (Windows NT 10.0; Win64; x64) AppleWebKit/537.36 (KHTML, like Gecko) Chrome/116.0.0.0 Safari/537.36" etag="VSv9c1r2dp65YSrz7Nkl" version="21.6.9" type="device">
  <diagram name="PÃ¡gina-1" id="c7kBIfRJTibBZiGQ2tCq">
    <mxGraphModel dx="1050" dy="574" grid="1" gridSize="10" guides="1" tooltips="1" connect="1" arrows="1" fold="1" page="1" pageScale="1" pageWidth="827" pageHeight="1169" math="0" shadow="0">
      <root>
        <mxCell id="0" />
        <mxCell id="1" parent="0" />
        <mxCell id="ApGoYjsaNNQ8hiWyn_Uy-5" value="Pantera" style="swimlane;fontStyle=1;align=center;verticalAlign=top;childLayout=stackLayout;horizontal=1;startSize=26;horizontalStack=0;resizeParent=1;resizeParentMax=0;resizeLast=0;collapsible=1;marginBottom=0;whiteSpace=wrap;html=1;" vertex="1" parent="1">
          <mxGeometry x="330" y="250" width="160" height="178" as="geometry" />
        </mxCell>
        <mxCell id="ApGoYjsaNNQ8hiWyn_Uy-6" value="+ tamanho : decimal&lt;br&gt;+ peso : int&lt;br&gt;+ Cor : string&lt;br&gt;+ especie : string&lt;br&gt;+ alimentacao : string" style="text;strokeColor=none;fillColor=none;align=left;verticalAlign=top;spacingLeft=4;spacingRight=4;overflow=hidden;rotatable=0;points=[[0,0.5],[1,0.5]];portConstraint=eastwest;whiteSpace=wrap;html=1;" vertex="1" parent="ApGoYjsaNNQ8hiWyn_Uy-5">
          <mxGeometry y="26" width="160" height="84" as="geometry" />
        </mxCell>
        <mxCell id="ApGoYjsaNNQ8hiWyn_Uy-7" value="" style="line;strokeWidth=1;fillColor=none;align=left;verticalAlign=middle;spacingTop=-1;spacingLeft=3;spacingRight=3;rotatable=0;labelPosition=right;points=[];portConstraint=eastwest;strokeColor=inherit;" vertex="1" parent="ApGoYjsaNNQ8hiWyn_Uy-5">
          <mxGeometry y="110" width="160" height="8" as="geometry" />
        </mxCell>
        <mxCell id="ApGoYjsaNNQ8hiWyn_Uy-8" value="+ Correr( ): void&lt;br&gt;+ Cacar( ) : void&lt;br&gt;+ Reproducao( ) : void" style="text;strokeColor=none;fillColor=none;align=left;verticalAlign=top;spacingLeft=4;spacingRight=4;overflow=hidden;rotatable=0;points=[[0,0.5],[1,0.5]];portConstraint=eastwest;whiteSpace=wrap;html=1;" vertex="1" parent="ApGoYjsaNNQ8hiWyn_Uy-5">
          <mxGeometry y="118" width="160" height="60" as="geometry" />
        </mxCell>
      </root>
    </mxGraphModel>
  </diagram>
</mxfile>
